<svg id="Graphic_element" data-name="Graphic element" xmlns="http://www.w3.org/2000/svg" viewBox="0 0 1200 1200"><path id="path4" d="M935.3,87.86h38.22c46.9,5.5,91,31.94,116.09,72.33,38.68,59,48.44,130.93,55.39,199.64v46.7c-2.91,47.49-16.9,93.57-36.62,136.67-33,71.65-74.54,139.8-125.94,199.83-27.94,30.85-49.33,66.75-70.21,102.54-47.83,79.37-100.35,155.8-149.09,234.56,12.9,5.91,27.16,9.95,38.17,19.24-.19,3.48-5.07.75-7.2.47-21-7.79-40.74-18.21-61.06-27.41-3.76-1.5-8.38-2.63-12-.47-12,11.73-16.41,30-30.08,40.18h-1.74c5.15-16,19.7-27.6,23.86-43.94-5.52-10.42-18.8-14.08-28.85-18.87-7.17,5.35-17.47,9.39-20.84,18.4,2.54,1.32,15.76,11.74,4.62,8.92-17.66-7.7-27.79,12.21-42.87,15.59,2.44-8.73,13.61-12.87,17.53-21.31-20.62-11.83-43.26-19.81-64.65-30.14C467.3,989,366.66,917.4,276.68,835.07c-69.21-63.51-131.82-135.65-176.62-218.64C77.12,575,59.91,529.8,55,482.48v-40c3.48-33.68,15.83-66.49,37.39-92.82,37.19-50.33,95.27-80.14,154.15-97.46,52.71-16.09,109.58-21.39,163.62-8.88-42.13-.69-84.33,2.41-126.13,7.85-70,7.88-138.17,41.91-183,96.84C74.42,382,56,424.43,59.4,468.4c1.69,66.22,32.53,126.86,67,181.8C196.9,763.91,298.39,854,405.2,932.74a117,117,0,0,0,20.2-27.32c-1.65-10.53-14.39-16.51-23.94-12.13-.39-7.65-4.81-17.34-13.62-17.56-5,4.91-8.37,12.46-15.53,14.78-2.23-7.39,7.25-12.71,10.19-18.6-69.05-60.43-142.43-119-192.29-197.29-26.14-41.35-45.76-87.5-52.52-136.19-3.37-29.2-1.55-58.65-1.88-88,2.22-26.28-1.23-53.56,7.62-78.9,11.4-27.69,43.87-32.53,66.39-46.3,31.58-31.09,74.18-50.55,118.46-53.34,71.62-5.65,145.73,1.92,212,31.06,22.16,8.72,42,22.45,63.81,31.67,24-16.83,46-37.34,61.26-62.7C693.5,226.32,733.11,189,776,157.34,822.64,122.23,876.42,93.83,935.3,87.86Zm-1,7.09c-43,4-83.45,21.4-120.33,43-60.87,36.48-112.77,88.14-150.36,148.1,83.27-40.74,161.16-94.08,249.58-124,30.35-9.19,68.11-7.12,92.2,15.6,28.26,21.7,53.05,48.36,71.07,79.15,17.65,52.22,40.19,103.7,46.48,159.16,4,22.92-1.69,46.69,1.12,69.31,28.64-89,15.87-186.73-14.55-273.72-17.09-49.34-54.55-93.74-105.43-109.53A172.64,172.64,0,0,0,934.3,95ZM938.06,171c-44.87,6.28-85.28,22.55-120.09,49-1.58,2.28.6,2.1,2.24,1.31,53.1-30.79,117-44.25,177.77-35.12C985.65,171.2,958.05,168.22,938.06,171Zm11.26,18.81c-3.82.1-9.52-1.12-11.73,1.2,31.18.35,63.39,6.15,88.93,24.34C1014.5,188.08,974.92,189.11,949.32,189.82ZM813.06,213.11c-35.51,39-93.28,49.42-138.42,76.61-23.32,11.71-33.49,37-42.7,59.77-4.45,9.07,2.29,18.86,8.87,24.8,32.76-33.12,68.49-63,103.11-94.16C764.29,255.7,793.26,234.85,813.06,213.11Zm106.93,6c15.13.39,24.07,22.59,30.71,37.66,34.53,69.06,32.74,149.51,20,223.87-2.38,4.56-2,20.4,5.93,12.45,17.21-47.34,11.49-100.95,15.24-148.92,5.64,45.38,2,91.18-3.44,136.41-.17,3.12-1.13,6.9,1.79,9,9.92-2.08,19.12-6.91,29.26-8.21,6.1-.94,15-1.63,16.14-9.22,11.18-45.77,18.88-92.85,19.16-140,0-42.24-24.13-83-61-103.48C971.11,217.17,944.58,219.79,920,219.15Zm-15,4.17c-68.52-13.49-123.81,61.54-176.13,105.61-44.92,35.95-81.65,85.51-94.34,142.28-3.06,5.61,2.77,20.79-5.92,20.08-1.34-12.78,1.86-25.15,4.54-37.48-2.45.54-4.7,1.94-7.21,2.09-16-25.2-45.58-40.66-68.91-59.61-5.35,2.82-9.47,10.61-13.76,15.37,28.31,18.49,59.1,37.47,75.07,68.6,7.37,14.08,10.9,32,9.65,46.84-6.58-47.25-41.71-85.92-84.53-104.49-2.56-1-8.17-1.22-6.32,2.71,2,10.1,12.42,16.62,14.21,26.36-9.08-2-13.41-13-20.39-18.4-6.31,6.07-9.28,15.21-17.05,19.91-8-18.45-27.14-30.85-41.81-44.51-33.92-31.33-82-41.49-126.93-41.06-38,1.26-72.39,21.72-99.87,46.68-13.21,11.07-16,29.45-13.1,45.59,7.69,142.62,73.63,284.83,184.93,374.84,13.62-10.93,25.41-23.92,38.47-35.51,140.12-131.44,307-235.28,489.47-296.39,6.16-1.34,13.83-2.46,15.87-9.52,10.22-34.63,12.35-71,13.27-106.9-.83-41-4.89-83.72-25.41-120.21C939.53,248.45,925.91,227.43,905,223.32Zm135,1.93c7.22.8,7.79,13.08,12.77,17.71C1047.92,238.19,1047.27,226.05,1040,225.25ZM345.57,276.12c-48.9,2.81-100.79,18-132.74,56,19.77-2.43,39.5-5.83,59.4-6.67-.77,2.93-9.39,2.79-11.37,5.75,28.08-4.4,57,12.31,84.29,2.42-14.76-5.21-38.36-1.57-53.33-8.12,32.25-3.89,64.1,6.75,96.4,4.67,62.74-5.32,126,10.89,181.15,40.31a158.8,158.8,0,0,0,24.46-25.58c6.07-5.63-3.7-9-7.5-11.94C514.49,289.88,428.88,271.32,345.57,276.12Zm727,3.41c9.16,9,8.26,25.93,11.55,37.2C1083.22,303.85,1082.29,289.08,1072.52,279.53ZM635.66,317.22a97.87,97.87,0,0,0-25.45,23.36,22.93,22.93,0,0,0,12.57,12c5.24-11.23,10.86-22.4,14.92-34.13.83-1.82-.8-1.57-2-1.27Zm455.83,3.46c67.13,129-56.43,282.23-115.56,412.11,61.57-71.81,120.53-152.61,138-247.87C1122.84,430.19,1116.93,369.56,1091.49,320.68ZM237.74,335.19c-34.85.54-43.45,48.33-49.25,78.65.26,4.89-4.84,16,1.56,17.69,12.12-7.78,18.55-21.58,29.45-30.83,22-23.56,51-37.91,79.51-51.9,2.72-1.29,14.36-6.62,6.31-8.05C282.87,338.44,260.32,334.84,237.74,335.19Zm-20.86.84c-7,2.76-14.6,3-19.35,8.93-25.63,29.77-46,66-50.36,105.57a185.07,185.07,0,0,0,14.16,73.55c.52,1.37,1.75,3.29,3.44,2.83,7.19-34.86,14.65-69.75,18.47-105.19,3.45-29.58,10.12-61.36,32.85-82.53C216.46,338.36,220.06,334.78,216.88,336Zm-29.07,5.67C155.89,356.85,135.29,393,145,424.64c7.6-29.36,26.81-53.18,42.49-78.46C188.26,344.74,191.87,339.78,187.81,341.7Zm413.93,3.69c-10.93-7.14-18.14,18.92-26.7,28.84,11.78,10.15,23.76,20.35,36.73,29C614.5,389,619,375,621,360.59,614,356.4,607.87,349.4,601.74,345.39ZM402.8,356.22c28.64.79,55.12,26,83.95,33.08-8.7-7.19-18.36-13.49-27.27-20.56C443.75,355.71,422,356.75,402.8,356.22ZM371,360.55c-1.67.26-5-.35-4.39,2.31A134.7,134.7,0,0,0,406,366.17C395.28,360.33,383.06,358.67,371,360.55Zm87.51,2.61a393.84,393.84,0,0,0,67.33,40.67c10.55,6.37,22.74-4.84,23.93-14.49-27.92-15.24-60-22.39-91.26-26.18Zm167.69,3.11c9.54,6.1-6,22-8.05,33C630.83,393.41,639.53,374.77,626.23,366.27Zm433.62,3.8c-5.63-1-10.55,125.76-76.2,263.39-21.57,45.21-52.18,97.62-117.37,200-15.43,24.21-34,47-46,73.05a1401.08,1401.08,0,0,0,120-174.63c87-149.85,109.51-253.39,117.48-316C1060.85,391.65,1062.15,370.48,1059.85,370.07ZM461.83,389c24.78,4.1,38,34,56.87,50.85,4.92-5.58,7.91-14.57,1.93-20.53C506.19,402,483.67,392.64,461.83,389ZM223.37,436.44c-10.53,19.74-22.08,39.8-26.42,62-3,39.07,10.76,76.84,24.89,112.62,33,84.6,93.57,155.27,162.52,213,8.82,6.77,16.58,15.88,27.43,19.39-6.8-15.06-22.22-23.48-32.65-35.76C288.36,721.32,242.74,598,225.29,476.19c-3.22-12.72,1.3-28.76-1.92-39.75ZM141.84,475.9c3.42,12.64-.72,25.57-.44,38.15,5.4,60.14,23.38,122.12,63.63,168.31C191.49,652,178.68,621,172.44,588.18,164.54,550.73,151.22,510.63,141.84,475.9ZM1028,483.54c-12.35,6.73-26.76,8.7-40.57,11.74-3.3.81-3.11,4.88-4,7.49-12,57.39-34.12,111.85-53.68,166.92-4.82,11.78-8.17,25.1-15.73,35,.15-10.44,6.23-23.28,9.77-34.36,19.7-55,41.81-109.53,54.57-166.72.92-3.38-2.83-8.46-6-3.67-8.15,4.25-7.85,14.13-10.36,21.73a1126.79,1126.79,0,0,1-43.27,109.76c-60.21,117.3-147.26,217.81-235.25,314.92-1.72,3.13-10.84,9.31-4.24,11.92,22.13,10.11,46,15.53,69.32,22.22,24.57-23.42,50.23-46.81,66.61-77.05,39.78-63.89,84.1-124.95,121.2-190.51A1011,1011,0,0,0,1031,488.38C1031.68,486.27,1031.12,481.85,1028,483.54Zm-75.91,23.51C753.87,570.7,575.58,688.86,428,834.61c-6.39,5.52,3.67,15,9.69,10.67C471,806,512.13,774.51,553,743.58c69.2-52.44,145.74-93.85,222.1-134.67,38.14-19.28,75.16-41.3,115-56.87,12.42,1.15,20.8-10.92,33-10.45,2,3.75-4.27,4.5-6,6.62q-83.6,40.92-163.31,89.17c-81.11,49.47-161.1,102.2-230.09,168-19.48,20.57-42.62,39.59-56.57,64.2,43.45,27.08,91.75,45.61,139,65.15,20.14,7.37,40.59,16.8,62.06,18.19,63.57-69,125.77-139.72,180.09-216.37,48.14-65.36,84.3-139,108.45-216.42,1.06-4.22,4.7-17.12-4.58-13.05ZM191.9,539.66c22.86,61.87,34.21,125.82,74.34,176.29,26.08,32,49.84,69.24,86.14,90.26C301.24,756,253.86,699.65,225,633.21,210.4,603.55,202.91,569.44,191.9,539.66Zm573.34,81.88c-114.67,60-228.31,127.16-318.1,221.84-11.18,9.22,10,25.46,17,13.14C550.52,763.62,653.67,687.9,763,624.05c.92-.29,5.61-3.89,2.28-2.51Zm-348.4,224.4c-6.46,1.42,8.75,14.39,12.59,8.93C427.67,850,422.36,844.73,416.84,845.94ZM434.57,856c-10-2.06,9.94,16.09,17.37,17.37C451.59,864.76,442.38,857.64,434.57,856Zm24.56,20.7c-2.71.58.16,3.63,1.19,4.78,18.71,14.34,41,22.79,62.29,32.47,67.24,27.93,134.37,57.5,205,75.79,3.15.82,15.2,2.87,12-3.43-30.07-15.65-65-18-95.31-32.53-43.85-15.34-87.7-31.08-129.3-51.91-18.91-7.62-35.84-21.37-55.84-25.17Zm-25.64,30.95c-7,9.27-19.57,18.59-19.32,30.93,75,49.63,152.82,97,238,127.25,9.2-5.26,17.18-13.24,25.3-20.28-84.4-40.35-164.21-89.33-243.94-137.9Zm390.82,4.85c-7.76,12.08-19.76,21.41-27.49,33.52C808.63,939,818.32,921.86,824.31,912.53Zm-365.92,2.7c76.17,36.27,145.43,87.5,221.7,123.87-31.42-25-70.26-40.62-105-61.2C536.36,956.73,498.26,934.21,458.39,915.23Zm370.7,4c-15.1,22.63-34,42.77-49.58,65.11-2.61,4.51,3.11,1.59,4.2-.69C800.05,963.72,816.16,938.61,829.09,919.24ZM578.61,947.06c47.12,12.35,84.62,48.5,127.82,70.93,8.49-5.3,15.58-12.54,23.44-18.68-2.31-2.94-7.89-3.26-11.49-5.1C671.63,979,626.13,959.51,578.61,947.06Zm209.09,4.06c-3.52,13.26-23.76,18.48-27.48,32.15C777.3,988.09,785,961.17,787.7,951.12Zm-37.26,38.32c-16.51,1.09,12.68,16.23,14.35,5.34C764.63,988.15,755.15,989.13,750.44,989.44Zm-12.2,13.18c-9.79,3.83-17.4,11.71-24.27,19.4,6.29,6.38,15.89,9.19,24.29,12.1,6.15-9.16,12.22-18.58,16.16-28.94a25,25,0,0,0-16.17-2.56Zm58,8.62c-8.05,18.76-25.33,32.18-40.71,45.79-7.45,3.76,1.31,17.65,7.15,10.8C775.93,1051.21,788.71,1028.77,796.23,1011.24Zm-68.49,49.45c3,7.32,16.24,8.83,23.84,12.11A28.27,28.27,0,0,0,727.74,1060.69Z"/></svg>